<?xml version="1.0" encoding="UTF-8"?>
<!-- Generated by Pixelmator Pro 3.3.8 -->
<svg width="495" height="271" viewBox="0 0 495 271" xmlns="http://www.w3.org/2000/svg">
    <path id="Path-copy-2" fill="#f89939" stroke="none" d="M 378.423828 228.824707 C 438.56076 168.691284 448.555481 81.192734 400.746338 33.387131 C 352.944305 -14.413116 265.449341 -4.420166 205.315903 55.709656 C 145.18248 115.841324 162.57782 230.724579 182.996933 251.147202 C 199.497345 267.647644 318.294006 288.954529 378.423828 228.824707 Z"/>
    <path id="Path-copy" fill="#3499cd" stroke="none" d="M 131.67215 141.933426 C 96.78566 107.046906 46.014851 101.238998 18.27149 128.980576 C -9.464759 156.718628 -3.665733 207.49649 31.227856 242.377701 C 66.121468 277.274841 132.781891 267.180695 144.621414 255.330505 C 154.202408 245.765503 166.56929 176.823456 131.67215 141.933426 Z"/>
    <g id="Group-copy">
        <path id="Path" fill="#010101" stroke="none" d="M 252.043701 214.085663 C 245.880676 219.758636 240.474045 223.945435 235.827393 226.635422 C 231.180695 229.33432 226.748856 230.681946 222.53186 230.681946 C 217.681015 230.681946 213.767609 228.801605 210.800659 225.039215 C 207.828339 221.273193 206.347519 216.223465 206.347519 209.870453 C 206.347519 200.351624 208.410721 188.924011 212.537155 175.600098 C 216.656509 162.265503 221.672501 149.978516 227.563843 138.737366 L 244.838394 132.341751 C 245.37999 132.160599 245.791901 132.068329 246.065338 132.068329 C 247.375732 132.068329 248.458801 133.034195 249.28981 134.957153 C 250.129623 136.889008 250.552231 139.484848 250.552231 142.748383 C 250.552231 151.997375 248.423309 160.951599 244.156631 169.611053 C 239.891678 178.274078 233.229721 187.519501 224.163651 197.357986 C 223.799637 202.073883 223.61853 205.312531 223.61853 207.082794 C 223.61853 211.029877 224.342972 214.153122 225.79361 216.466705 C 227.246017 218.783829 229.170746 219.934433 231.574875 219.934433 C 234.026932 219.934433 236.631729 219.057236 239.398071 217.288773 C 242.159119 215.516785 246.376099 211.848419 252.041916 206.267792 L 252.041916 214.085663 Z M 225.999573 187.499985 C 231.756012 181.09903 236.431076 173.92038 240.01062 165.978241 C 243.59021 158.032532 245.378204 151.198364 245.378204 145.472107 C 245.378204 143.80307 245.131393 142.446564 244.636002 141.427383 C 244.137054 140.406403 243.497879 139.893265 242.729034 139.893265 C 241.058243 139.893265 238.616821 144.069397 235.418991 152.423508 C 232.221191 160.775818 229.081955 172.469757 225.999573 187.499985 Z"/>
        <path id="path1" fill="#010101" stroke="none" d="M 302.917511 214.085663 C 297.161072 219.758636 291.994171 223.945435 287.413177 226.635422 C 282.832184 229.33432 277.782471 230.681946 272.247955 230.681946 C 266.081421 230.681946 261.106262 228.70929 257.315399 224.769287 C 253.531677 220.818634 251.642456 215.632187 251.642456 209.192169 C 251.642456 199.582764 254.971664 190.887772 261.644287 183.112549 C 268.302673 175.33371 275.696167 171.446991 283.810577 171.446991 C 288.027557 171.446991 291.401154 172.539001 293.943787 174.71405 C 296.482819 176.8927 297.75235 179.746063 297.75235 183.28299 C 297.75235 192.670441 287.778961 200.282364 267.830383 206.132858 C 269.641479 214.96994 274.378693 219.394623 282.042084 219.394623 C 285.035645 219.394623 287.889069 218.590271 290.607422 216.985153 C 293.332916 215.372955 297.43277 211.796967 302.919281 206.269577 L 302.919281 214.085663 Z M 267.281677 201.507477 C 278.885101 198.240417 284.691254 192.214142 284.691254 183.417938 C 284.691254 179.06601 283.102081 176.89093 279.932678 176.89093 C 276.939056 176.89093 274.085693 179.165436 271.367279 183.726898 C 268.640045 188.28125 267.281677 194.204559 267.281677 201.507477 Z"/>
        <path id="path2" fill="#010101" stroke="none" d="M 375.549133 214.085663 C 368.294128 220.976685 363.102325 225.470627 359.977356 227.558746 C 356.848755 229.643234 353.856934 230.683731 350.99826 230.683731 C 343.833801 230.683731 340.458435 224.360901 340.865051 211.70993 C 336.332001 218.190811 332.146973 222.974213 328.315308 226.06369 C 324.487152 229.146088 320.532959 230.683731 316.447296 230.683731 C 312.462952 230.683731 309.075165 228.817596 306.282196 225.076492 C 303.489166 221.335358 302.102478 216.747253 302.102478 211.301575 C 302.102478 204.504669 303.968597 198.020264 307.706146 191.850128 C 311.450867 185.683563 316.244934 180.701294 322.091888 176.8927 C 327.938873 173.084061 333.112915 171.177139 337.596191 171.177139 C 343.265594 171.177139 347.23407 173.785446 349.501434 178.996765 L 363.400635 171.315582 L 367.214569 171.315582 L 361.211334 191.239334 C 358.128967 201.262421 356.582428 208.132156 356.582428 211.848419 C 356.582428 215.745819 357.962067 217.695389 360.730164 217.695389 C 362.491547 217.695389 364.441101 216.756134 366.573608 214.872223 C 368.706055 212.988327 371.692566 210.120789 375.545563 206.267792 L 375.545563 214.085663 Z M 325.767334 217.830368 C 330.300354 217.830368 334.572388 213.966721 338.592316 206.237595 C 342.605133 198.505005 344.609772 191.370743 344.609772 184.843719 C 344.609772 182.308197 344.037994 180.32135 342.910522 178.895538 C 341.772339 177.462646 340.254272 176.752411 338.35437 176.752411 C 333.81781 176.752411 329.517365 180.605438 325.467285 188.314941 C 321.410065 196.024521 319.377045 203.11972 319.377045 209.597046 C 319.377045 212.049072 319.980743 214.032394 321.18103 215.552277 C 322.381317 217.072189 323.904755 217.830368 325.767334 217.830368 Z"/>
        <path id="path3" fill="#010101" stroke="none" d="M 426.353668 214.085663 C 414.972229 225.238068 406.197357 230.818695 400.032532 230.818695 C 397.264435 230.818695 394.927765 229.650345 393.027863 227.32254 C 391.128052 224.985931 390.171021 222.093521 390.171021 218.645325 C 390.171021 212.25325 393.59787 203.687927 400.442719 192.940338 C 397.085083 194.664444 393.416779 195.861145 389.425262 196.542969 C 386.477783 201.983322 381.850677 207.833862 375.550934 214.083878 L 373.990204 214.083878 L 373.990204 207.970581 C 377.52356 204.298706 380.721375 200.351563 383.578308 196.134583 C 379.673767 194.410522 377.727783 191.848389 377.727783 188.453445 C 377.727783 184.957352 378.913879 181.230423 381.300232 177.258484 C 383.679504 173.29538 386.953674 171.313858 391.128052 171.313858 C 394.664978 171.313858 396.429901 173.121338 396.429901 176.750641 C 396.429901 179.607544 395.410706 183.686035 393.367035 188.993256 C 400.891937 188.174713 407.466888 182.421814 413.091919 171.718689 L 419.278046 171.445206 L 412.95343 188.854767 C 410.325562 196.200302 408.624603 201.203857 407.855743 203.853027 C 407.086853 206.502197 406.698029 208.853058 406.698029 210.889664 C 406.698029 212.796585 407.141907 214.320007 408.022614 215.44574 C 408.906891 216.587463 410.100067 217.148529 411.595062 217.148529 C 413.225037 217.148529 414.792908 216.591019 416.287933 215.486588 C 417.78299 214.36618 421.138794 211.298004 426.355438 206.266052 L 426.355438 214.085663 Z"/>
        <path id="path4" fill="#010101" stroke="none" d="M 493.140167 214.085663 C 482.667816 225.154617 473.685181 230.683731 466.208252 230.683731 C 463.170258 230.683731 460.72171 229.618362 458.862732 227.485931 C 457.000122 225.35701 456.071472 222.501877 456.071472 218.920547 C 456.071472 214.069672 458.069 206.654907 462.060516 196.685059 C 464.189453 191.333466 465.258331 187.927902 465.258331 186.48259 C 465.258331 185.030121 464.686615 184.303925 463.559113 184.303925 C 462.925201 184.303925 462.081818 184.623566 461.041351 185.25386 C 460.08429 185.887741 458.974548 186.779083 457.705017 187.910126 C 456.574005 188.950623 455.300873 190.220139 453.896423 191.711609 C 452.669495 192.991821 451.353821 194.44072 449.95639 196.067108 L 446.142487 200.491852 C 444.46817 202.530228 443.424072 204.68045 443.017456 206.9496 C 442.333832 210.802628 441.882874 214.343109 441.653809 217.565765 C 441.51532 219.962799 441.449615 223.201477 441.449615 227.290634 L 426.419403 230.820435 C 425.924042 224.700058 425.670105 220.142166 425.670105 217.153854 C 425.670105 209.854492 426.520599 202.938629 428.223358 196.411575 C 429.922577 189.877472 432.651703 182.537231 436.417633 174.373169 L 453.008636 171.178864 C 449.519653 180.566376 447.230927 187.952759 446.142487 193.345169 C 453.578583 185.049683 459.473511 179.307465 463.84317 176.10614 C 468.20578 172.908279 472.090729 171.317383 475.485657 171.317383 C 477.792084 171.317383 479.720337 172.187439 481.256287 173.92926 C 482.799225 175.672852 483.566254 177.862152 483.566254 180.479355 C 483.566254 184.827728 481.616699 191.992188 477.722809 201.970917 C 475.045288 208.813995 473.706482 213.254715 473.706482 215.305511 C 473.706482 218.034546 474.819824 219.398209 477.046387 219.398209 C 480.361359 219.398209 485.730682 215.021393 493.140167 206.271362 Z"/>
    </g>
    <text id="scikit" xml:space="preserve" x="269" y="151" font-family="Helvetica" font-size="40.979385" fill="#ffffff">scikit</text>
</svg>
